<svg height="512pt" viewBox="0 0 512.00104 512" width="512pt" xmlns="http://www.w3.org/2000/svg"><path d="m512 256c0 102.535156-60.28125 190.996094-147.339844 231.859375-27.03125 12.695313-56.644531 20.792969-87.84375 23.300781-6.867187.554688-13.804687.835938-20.816406.835938-8.230469 0-16.394531-.386719-24.4375-1.160156-10.28125-.960938-20.386719-2.546876-30.269531-4.699219-20.15625-4.390625-39.414063-11.148438-57.480469-19.96875-54.378906-26.550781-97.949219-71.804688-122.335938-127.382813-13.8125-31.460937-21.47265575-66.226562-21.47265575-102.785156 0-141.386719 114.61328175-256 255.99609375-256 141.386719 0 256 114.613281 256 256zm0 0" fill="#3fb777"/><path d="m489.023438 330.101562v32.046876c-25.222657 55.285156-69.539063 100.019531-124.511719 125.785156-9.957031 4.660156-20.269531 8.703125-30.886719 12.070312-11.941406 3.8125-24.261719 6.75-36.902344 8.765625-.054687.007813-.117187.019531-.167968.019531v-178.6875c0-38.085937 29.328124-69.328124 66.652343-72.335937 1.964844-.167969 3.941407-.242187 5.933594-.242187h47.273437c5.589844 0 11.035157.617187 16.257813 1.820312 32.265625 7.375 56.351563 36.265625 56.351563 70.757812zm0 0" fill="#bfd5de"/><path d="m489.023438 330.101562v32.046876c-25.222657 55.285156-69.539063 100.019531-124.511719 125.785156-9.957031 4.660156-20.269531 8.703125-30.886719 12.070312v-169.902344c0-40.082031 32.507812-72.578124 72.601562-72.578124h10.195313c40.105469 0 72.601563 32.496093 72.601563 72.578124zm0 0" fill="#dde8ed"/><path d="m321.738281 177.464844c0 11.988281-8.761719 21.929687-20.230469 23.777344-1.25.203124-2.542968.308593-3.855468.308593-13.308594 0-24.085938-10.78125-24.085938-24.085937 0-13.304688 10.777344-24.085938 24.085938-24.085938 1.3125 0 2.605468.105469 3.855468.308594 11.46875 1.847656 20.230469 11.789062 20.230469 23.777344zm0 0" fill="#d3a489"/><path d="m412.273438 283.710938-19.488282 31.253906-19.484375-31.253906" fill="#f74f4f"/><path d="m419.003906 403.261719-26.214844 33.089843-26.226562-33.089843 26.230469-96.429688zm0 0" fill="#f74f4f"/><path d="m321.738281 177.464844c0 11.988281-8.761719 21.929687-20.230469 23.777344-2.082031-7.578126-3.195312-15.546876-3.195312-23.777344 0-8.226563 1.113281-16.199219 3.195312-23.777344 11.46875 1.847656 20.230469 11.789062 20.230469 23.777344zm0 0" fill="#bf8e75"/><path d="m306.261719 177.464844c0 4.753906-3.855469 8.609375-8.609375 8.609375s-8.609375-3.855469-8.609375-8.609375 3.855469-8.609375 8.609375-8.609375 8.609375 3.855469 8.609375 8.609375zm0 0" fill="#bf8e75"/><path d="m392.78125 287.234375-32.683594 18.164063-9.941406-46.242188 20.308594-11.960938" fill="#bfd5de"/><path d="m392.78125 287.234375 32.679688 18.164063 9.941406-46.242188-20.304688-11.960938" fill="#bfd5de"/><path d="m463.828125 177.464844c0 11.988281 8.757813 21.929687 20.226563 23.777344 1.253906.203124 2.546874.308593 3.859374.308593 13.308594 0 24.085938-10.78125 24.085938-24.085937 0-13.304688-10.777344-24.085938-24.085938-24.085938-1.3125 0-2.605468.105469-3.859374.308594-11.46875 1.847656-20.226563 11.789062-20.226563 23.777344zm0 0" fill="#d3a489"/><g fill="#bf8e75"><path d="m463.828125 177.464844c0 11.988281 8.757813 21.929687 20.226563 23.777344 2.085937-7.578126 3.199218-15.546876 3.199218-23.777344 0-8.226563-1.113281-16.199219-3.199218-23.777344-11.46875 1.847656-20.226563 11.789062-20.226563 23.777344zm0 0"/><path d="m496.523438 177.464844c0 4.753906-3.855469 8.609375-8.609376 8.609375-4.753906 0-8.609374-3.855469-8.609374-8.609375s3.855468-8.609375 8.609374-8.609375c4.753907 0 8.609376 3.855469 8.609376 8.609375zm0 0"/><path d="m482.398438 164.664062c0 44.59375-32.578126 81.589844-75.230469 88.457032-4.679688.769531-9.484375 1.15625-14.382813 1.15625-49.496094 0-89.617187-40.117188-89.617187-89.613282 0-23.417968 8.136719-58.574218 22.839843-74.539062 16.378907-17.777344 40.699219-15.078125 66.777344-15.078125 4.898438 0 9.703125.390625 14.382813 1.160156 42.652343 6.867188 75.230469 43.859375 75.230469 88.457031zm0 0"/><path d="m418.683594 229.554688v31.785156c0 11.636718-7.671875 21.472656-18.242188 24.738281-2.417968.75-4.996094 1.15625-7.660156 1.15625-14.304688 0-25.898438-11.589844-25.898438-25.894531v-31.785156zm0 0"/></g><path d="m418.683594 259.328125v2.011719c0 11.636718-7.671875 21.472656-18.242188 24.742187-9.535156-2.933593-16.703125-11.222656-18.027344-21.367187 1.730469.105468 3.46875.160156 5.21875.160156 4.902344 0 9.703126-.390625 14.382813-1.160156 5.765625-.925782 11.335937-2.410156 16.667969-4.386719zm0 0" fill="#d3a489"/><path d="m482.398438 164.664062c0 44.59375-32.578126 81.589844-75.230469 88.457032-42.65625-6.867188-75.234375-43.863282-75.234375-88.457032 0-27.460937 12.351562-52.039062 31.8125-68.480468 12.128906-10.257813 27.035156-17.339844 43.421875-19.980469 39.765625 6.402344 70.78125 39 74.789062 79.523437.292969 2.941407.441407 5.925782.441407 8.9375zm0 0" fill="#d3a489"/><path d="m392.785156 208.800781c-7.503906 0-15.007812-1.882812-21.847656-5.640625-1.929688-1.0625-2.636719-3.484375-1.574219-5.414062 1.0625-1.929688 3.484375-2.632813 5.414063-1.574219 11.277344 6.199219 24.738281 6.199219 36.015625 0 1.925781-1.058594 4.351562-.355469 5.414062 1.574219 1.058594 1.929687.355469 4.351562-1.574219 5.414062-6.839843 3.757813-14.34375 5.640625-21.847656 5.640625zm0 0" fill="#bf8e75"/><path d="m373.699219 159.445312c0 5.617188-4.550781 10.167969-10.164063 10.167969-5.617187 0-10.167968-4.550781-10.167968-10.167969 0-5.613281 4.550781-10.164062 10.167968-10.164062 5.613282 0 10.164063 4.550781 10.164063 10.164062zm0 0" fill="#3d4159"/><path d="m432.199219 159.445312c0 5.617188-4.550781 10.167969-10.164063 10.167969-5.613281 0-10.167968-4.550781-10.167968-10.167969 0-5.613281 4.554687-10.164062 10.167968-10.164062 5.613282 0 10.164063 4.550781 10.164063 10.164062zm0 0" fill="#3d4159"/><path d="m371.628906 157.652344c0 2.40625-1.953125 4.355468-4.359375 4.355468s-4.355469-1.949218-4.355469-4.355468 1.949219-4.355469 4.355469-4.355469 4.359375 1.949219 4.359375 4.355469zm0 0" fill="#fff"/><path d="m430.628906 157.652344c0 2.40625-1.953125 4.355468-4.359375 4.355468s-4.355469-1.949218-4.355469-4.355468 1.949219-4.355469 4.355469-4.355469 4.359375 1.949219 4.359375 4.355469zm0 0" fill="#fff"/><path d="m402.949219 185.042969h-20.332031c-2.421876 0-4.382813-1.964844-4.382813-4.386719s1.960937-4.382812 4.382813-4.382812h20.332031c2.421875 0 4.386719 1.960937 4.386719 4.382812s-1.964844 4.386719-4.386719 4.386719zm0 0" fill="#bf8e75"/><path d="m422.289062 327.722656h39.066407v11.960938h-39.066407zm0 0" fill="#bfd5de"/><path d="m387.539062 49.445312c27.148438 1.941407 48.945313 23.871094 50.324219 51.476563l.257813 5.183594h15.617187l8.410157 55.929687 20.371093-6.304687-2.734375-54.808594c-1.445312-28.996094-25.429687-51.722656-54.453125-51.617187zm0 0" fill="#2a2f4f"/><path d="m478.058594 27.816406c21.617187 21.617188 21.617187 56.667969 0 78.285156-21.617188 21.617188-56.667969 21.617188-78.285156 0zm0 0" fill="#3d4159"/><path d="m399.777344 106.101562h-67.941406l-8.414063 55.933594-20.371094-6.304687 2.734375-54.808594c1.441406-28.992187 25.425782-51.726563 54.453125-51.617187l98.121094.371093 12.972656 23.347657" fill="#3d4159"/><path d="m398.027344 49.445312c-27.144532 1.941407-48.941406 23.871094-50.324219 51.476563l-.257813 5.183594h-15.613281l-8.414062 55.929687-20.371094-6.304687 2.738281-54.808594c1.441406-28.996094 25.425782-51.722656 54.449219-51.617187zm0 0" fill="#2a2f4f"/><path d="m201.292969 332.246094v173.890625c-80.78125-17.585938-147.320313-73.300781-179.816407-147.351563v-26.539062c0-31.378906 21.304688-57.785156 50.246094-65.515625 1.058594-.292969 2.121094-.554688 3.210938-.785157 2.871094-.625 5.820312-1.054687 8.816406-1.292968 1.828125-.148438 3.679688-.230469 5.550781-.230469h44.167969c4.941406 0 9.746094.519531 14.386719 1.523437.273437.054688.53125.117188.792969.179688.785156.175781 1.558593.363281 2.332031.574219.03125.011719.03125.011719.0625.019531 7.636719 2.039062 14.742187 5.382812 21.054687 9.769531 17.648438 12.246094 29.195313 32.652344 29.195313 55.757813zm0 0" fill="#3d4159"/><path d="m151.207031 265.949219-.164062.769531-21.636719 100.601562c-1.117188.097657-2.242188.183594-3.367188.261719-1.582031.101563-3.175781.199219-4.777343.269531-3.273438.15625-6.5625.234376-9.867188.234376-3.394531 0-6.761719-.078126-10.113281-.242188-1.515625-.070312-3.03125-.15625-4.546875-.269531-1.132813-.078125-2.257813-.15625-3.382813-.25l-21.625-100.597657-.164062-.777343zm0 0" fill="#66baed"/><path d="m129.59375 288.894531-18.207031 29.203125-18.207031-29.203125" fill="#dde8ed"/><path d="m126.039062 367.582031c-1.582031.101563-11.339843 51.703125-14.648437 51.703125-3.394531 0-13.140625-51.597656-14.65625-51.710937l14.65625-57.078125zm0 0" fill="#dde8ed"/><path d="m111.378906 292.1875-30.53125 16.96875-9.289062-43.203125 18.972656-11.175781" fill="#2ba1cf"/><path d="m111.378906 292.1875 30.535156 16.96875 9.289063-43.203125-18.972656-11.175781" fill="#2ba1cf"/><path d="m152.359375 324.25h9.683594l-41.554688 107.550781-8.179687 21.179688-9.070313-22.535157 8.347657-28.664062 39.394531-135.082031.230469-.753907 20.886718 6.824219zm0 0" fill="#2a2f4f"/><path d="m120.488281 431.800781-8.179687 21.179688-9.070313-22.535157-42.746093-106.195312h9.695312l-19.746094-51.480469 20.894532-6.824219.222656.753907 40.027344 135.082031zm0 0" fill="#2a2f4f"/><path d="m135.582031 238.296875v29.699219c0 10.871094-7.167969 20.058594-17.042969 23.109375-2.257812.703125-4.667968 1.082031-7.15625 1.082031-13.363281 0-24.195312-10.828125-24.195312-24.195312v-29.695313zm0 0" fill="#eab599"/><path d="m135.582031 266.113281v1.882813c0 10.871094-7.167969 20.058594-17.042969 23.109375-8.90625-2.738281-15.605468-10.484375-16.84375-19.960938 1.617188.097657 3.242188.148438 4.875.148438 4.578126 0 9.066407-.363281 13.4375-1.082031 5.386719-.863282 10.59375-2.25 15.574219-4.097657zm0 0" fill="#f6caae"/><path d="m45.003906 189.628906c0 11.203125-8.179687 20.492188-18.894531 22.214844-1.171875.191406-2.378906.289062-3.605469.289062-12.433594 0-22.503906-10.070312-22.503906-22.503906 0-12.429687 10.070312-22.503906 22.503906-22.503906 1.226563 0 2.433594.101562 3.605469.289062 10.714844 1.726563 18.894531 11.011719 18.894531 22.214844zm0 0" fill="#f6caae"/><path d="m45.003906 189.628906c0 11.203125-8.179687 20.492188-18.894531 22.214844-1.949219-7.078125-2.988281-14.527344-2.988281-22.214844s1.039062-15.136718 2.988281-22.214844c10.714844 1.726563 18.894531 11.011719 18.894531 22.214844zm0 0" fill="#eab599"/><path d="m30.546875 189.628906c0 4.441406-3.601563 8.042969-8.042969 8.042969s-8.042968-3.601563-8.042968-8.042969 3.601562-8.042968 8.042968-8.042968 8.042969 3.601562 8.042969 8.042968zm0 0" fill="#eab599"/><path d="m177.761719 189.628906c0 11.203125 8.183593 20.492188 18.898437 22.214844 1.171875.191406 2.375.289062 3.605469.289062 12.429687 0 22.5-10.070312 22.5-22.503906 0-12.429687-10.070313-22.503906-22.5-22.503906-1.230469 0-2.433594.101562-3.605469.289062-10.714844 1.726563-18.898437 11.011719-18.898437 22.214844zm0 0" fill="#f6caae"/><path d="m177.761719 189.628906c0 11.203125 8.183593 20.492188 18.898437 22.214844 1.945313-7.078125 2.984375-14.527344 2.984375-22.214844s-1.039062-15.136718-2.984375-22.214844c-10.714844 1.726563-18.898437 11.011719-18.898437 22.214844zm0 0" fill="#eab599"/><path d="m195.109375 145.789062v31.882813c0 41.664063-30.4375 76.226563-70.289063 82.640625-.132812.023438-.277343.042969-.410156.066406-4.238281.679688-8.589844 1.015625-13.027344 1.015625-46.238281 0-83.722656-37.484375-83.722656-83.722656v-31.882813c0-9.738281 1.660156-19.09375 4.730469-27.785156 11.449219-32.582031 42.496094-55.945312 78.992187-55.945312h.003907c4.433593 0 8.792969.34375 13.039062 1.011718 40.046875 6.261719 70.683594 40.914063 70.683594 82.71875zm0 0" fill="#eab599"/><path d="m208.304688 189.628906c0 4.441406-3.597657 8.042969-8.039063 8.042969-4.445313 0-8.042969-3.601563-8.042969-8.042969s3.597656-8.042968 8.042969-8.042968c4.441406 0 8.039063 3.601562 8.039063 8.042968zm0 0" fill="#eab599"/><path d="m195.109375 145.789062v31.882813c0 41.664063-30.4375 76.226563-70.289063 82.640625-.132812.023438-.277343.042969-.410156.066406-40.046875-6.257812-70.675781-40.910156-70.675781-82.707031v-31.882813c0-41.804687 30.636719-76.457031 70.691406-82.71875 40.046875 6.261719 70.683594 40.914063 70.683594 82.71875zm0 0" fill="#f6caae"/><path d="m93.554688 172.796875c0 5.242187-4.253907 9.496094-9.5 9.496094-5.242188 0-9.496094-4.253907-9.496094-9.496094 0-5.246094 4.253906-9.5 9.496094-9.5 5.246093 0 9.5 4.253906 9.5 9.5zm0 0" fill="#3d4159"/><path d="m148.210938 172.796875c0 5.242187-4.25 9.496094-9.496094 9.496094s-9.5-4.253907-9.5-9.496094c0-5.246094 4.253906-9.5 9.5-9.5s9.496094 4.253906 9.496094 9.5zm0 0" fill="#3d4159"/><path d="m91.617188 171.121094c0 2.246094-1.820313 4.066406-4.070313 4.066406-2.246094 0-4.070313-1.820312-4.070313-4.066406 0-2.25 1.824219-4.070313 4.070313-4.070313 2.25 0 4.070313 1.820313 4.070313 4.070313zm0 0" fill="#fff"/><path d="m146.742188 171.121094c0 2.246094-1.824219 4.066406-4.070313 4.066406s-4.070313-1.820312-4.070313-4.066406c0-2.25 1.824219-4.070313 4.070313-4.070313s4.070313 1.820313 4.070313 4.070313zm0 0" fill="#fff"/><path d="m120.882812 192.984375h-18.996093c-2.261719 0-4.097657-1.832031-4.097657-4.097656 0-2.261719 1.835938-4.097657 4.097657-4.097657h18.996093c2.261719 0 4.097657 1.835938 4.097657 4.097657s-1.835938 4.097656-4.097657 4.097656zm0 0" fill="#eab599"/><path d="m111.382812 218.90625c-7.007812 0-14.019531-1.757812-20.410156-5.269531-1.800781-.992188-2.460937-3.257813-1.46875-5.058594.992188-1.804687 3.253906-2.460937 5.058594-1.46875 10.535156 5.789063 23.113281 5.789063 33.648438 0 1.800781-.992187 4.066406-.335937 5.054687 1.46875.992187 1.800781.335937 4.066406-1.46875 5.058594-6.390625 3.511719-13.402344 5.269531-20.414063 5.269531zm0 0" fill="#eab599"/><path d="m195.109375 116.855469v32.660156h-15.582031v-25.578125l-112.484375-20.902344-23.800781-4.425781v50.90625h-15.582032v-32.660156c0-37.230469 30.175782-67.40625 67.398438-67.40625h32.648437c.886719 0 1.773438.011719 2.660157.058593 35.988281 1.382813 64.742187 31.003907 64.742187 67.347657zm0 0" fill="#e8c934"/><path d="m195.109375 116.855469v32.660156h-15.582031v-25.578125l-112.484375-20.902344c6.199219-29.765625 32.023437-52.320312 63.324219-53.527344 35.988281 1.382813 64.742187 31.003907 64.742187 67.347657zm0 0" fill="#ffe152"/><path d="m364.660156 470.171875v17.6875c-32.976562 15.484375-69.808594 24.136719-108.660156 24.136719-18.773438 0-37.082031-2.015625-54.707031-5.859375-7.085938-1.546875-14.054688-3.375-20.910157-5.496094-12.632812-3.898437-24.859374-8.757813-36.570312-14.472656v-15.996094c0-38.535156 26.164062-70.960937 61.710938-80.46875 1.296874-.34375 2.601562-.667969 3.929687-.949219 3.53125-.765625 7.15625-1.296875 10.84375-1.601562 2.246094-.1875 4.515625-.269532 6.8125-.269532h54.242187c6.058594 0 11.972657.636719 17.667969 1.871094.324219.0625.660157.132813.972657.207032.960937.21875 1.921874.460937 2.863281.722656.03125 0 .050781 0 .070312.007812 9.386719 2.507813 18.109375 6.617188 25.863281 12.007813 21.679688 15.035156 35.871094 40.101562 35.871094 68.472656zm0 0" fill="#e8c934"/><path d="m364.660156 470.171875v17.6875c-32.976562 15.484375-69.808594 24.136719-108.660156 24.136719-18.773438 0-37.082031-2.015625-54.707031-5.859375-7.085938-1.546875-14.054688-3.375-20.910157-5.496094v-30.46875c0-38.535156 26.164063-70.960937 61.710938-80.46875 1.296875-.34375 2.601562-.667969 3.929688-.949219 3.53125-.765625 7.15625-1.296875 10.84375-1.601562 2.25-.1875 4.515624-.269532 6.8125-.269532h17.671874c6.058594 0 11.972657.636719 17.667969 1.871094.324219.0625.660157.132813.972657.207032.960937.21875 1.921874.460937 2.863281.722656.03125 0 .050781 0 .070312.007812 9.386719 2.507813 18.109375 6.617188 25.863281 12.007813 21.679688 15.035156 35.871094 40.101562 35.871094 68.472656zm0 0" fill="#ffe152"/><path d="m303.136719 388.753906-.210938.9375-26.109375 121.46875c-6.867187.554688-13.804687.835938-20.816406.835938-8.230469 0-16.394531-.386719-24.4375-1.160156l-26.039062-121.132813-.210938-.949219zm0 0" fill="#f2f0ec"/><path d="m254.222656 420.976562-37.496094 20.839844-11.410156-53.0625 23.300782-13.722656" fill="#d8d5d0"/><path d="m254.222656 420.976562 37.5 20.839844 11.40625-53.0625-23.296875-13.722656" fill="#d8d5d0"/><path d="m142.265625 366.796875v-125.617187c0-12.765626 2.128906-25.269532 6.328125-37.167969 15.722656-44.738281 58.175781-74.808594 105.636719-74.808594 5.878906 0 11.746093.457031 17.445312 1.359375 26.078125 4.074219 50 17.382812 67.347657 37.476562 17.53125 20.308594 27.183593 46.285157 27.183593 73.140626v125.617187" fill="#f74f4f"/><path d="m188.324219 246.085938c0 44.433593 26.015625 95.835937 40.304687 120.710937h-86.367187v-125.617187c0-12.761719 2.128906-25.265626 6.328125-37.167969 15.625-44.480469 57.691406-74.460938 104.824218-74.796875-34.425781.859375-65.089843 56.085937-65.089843 116.871094zm0 0" fill="#dd3033"/><path d="m283.953125 354.792969v36.46875c0 13.351562-8.804687 24.636719-20.929687 28.386719-2.777344.859374-5.734376 1.328124-8.792969 1.328124-16.410157 0-29.714844-13.304687-29.714844-29.714843v-36.46875zm0 0" fill="#eab599"/><path d="m283.953125 388.953125v2.308594c0 13.351562-8.804687 24.636719-20.929687 28.386719-10.941407-3.363282-19.167969-12.875-20.6875-24.515626 1.984374.121094 3.980468.179688 5.988281.179688 5.621093 0 11.132812-.445312 16.503906-1.324219 6.613281-1.066406 13.007813-2.765625 19.125-5.035156zm0 0" fill="#f6caae"/><path d="m172.714844 295.019531c0 13.757813-10.050782 25.167969-23.207032 27.285157-1.441406.230468-2.917968.351562-4.429687.351562-15.265625 0-27.636719-12.367188-27.636719-27.636719 0-15.265625 12.371094-27.632812 27.636719-27.632812 1.511719 0 2.988281.121093 4.429687.351562 13.15625 2.117188 23.207032 13.523438 23.207032 27.28125zm0 0" fill="#f6caae"/><path d="m172.714844 295.019531c0 13.757813-10.050782 25.167969-23.207032 27.285157-2.390624-8.695313-3.667968-17.839844-3.667968-27.285157 0-9.441406 1.277344-18.585937 3.667968-27.28125 13.15625 2.117188 23.207032 13.523438 23.207032 27.28125zm0 0" fill="#eab599"/><path d="m154.957031 295.019531c0 5.457031-4.421875 9.878907-9.878906 9.878907-5.453125 0-9.875-4.421876-9.875-9.878907 0-5.453125 4.421875-9.875 9.875-9.875 5.457031 0 9.878906 4.421875 9.878906 9.875zm0 0" fill="#eab599"/><path d="m325.195312 259.734375v94.996094c-14.683593 14.015625-33.511718 23.722656-54.460937 27.097656-.164063.027344-.339844.054687-.503906.082031-5.203125.832032-10.546875 1.246094-16 1.246094-56.785157 0-102.820313-46.035156-102.820313-102.820312v-39.15625c0-5.011719.359375-9.945313 1.054688-14.765626 24.460937 17.59375 59.539062 15.855469 81.886718-5.269531 7.402344-6.988281 12.542969-15.3125 15.453126-24.140625 1.617187 15.460938 8.691406 30.507813 21.222656 42.355469 14.921875 14.089844 34.636718 20.886719 54.167968 20.375zm0 0" fill="#eab599"/><path d="m325.195312 259.734375v94.996094c-14.683593 14.015625-33.511718 23.722656-54.460937 27.097656-.164063.027344-.339844.054687-.503906.082031-49.179688-7.683594-86.796875-50.242187-86.796875-101.574218v-39.15625c0-1.042969.015625-2.074219.054687-3.109376 18.132813 1.855469 36.957031-3.777343 50.863281-16.925781 7.402344-6.988281 12.542969-15.3125 15.453126-24.140625 1.621093 15.460938 8.691406 30.507813 21.222656 42.355469 14.921875 14.089844 34.636718 20.886719 54.167968 20.375zm0 0" fill="#f6caae"/><path d="m309.453125 271.652344c0-9.433594-7.644531-17.078125-17.074219-17.078125-9.433594 0-17.078125 7.644531-17.078125 17.078125" fill="#eab599"/><path d="m233.179688 271.652344c0-9.433594-7.644532-17.078125-17.078126-17.078125-9.429687 0-17.074218 7.644531-17.074218 17.078125" fill="#eab599"/><path d="m227.765625 278.921875c0 6.441406-5.222656 11.664063-11.664063 11.664063-6.441406 0-11.664062-5.222657-11.664062-11.664063s5.222656-11.664063 11.664062-11.664063c6.441407 0 11.664063 5.222657 11.664063 11.664063zm0 0" fill="#3d4159"/><path d="m304.042969 278.921875c0 6.441406-5.222657 11.664063-11.664063 11.664063-6.445312 0-11.664062-5.222657-11.664062-11.664063s5.21875-11.664063 11.664062-11.664063c6.441406 0 11.664063 5.222657 11.664063 11.664063zm0 0" fill="#3d4159"/><path d="m265.902344 308.289062h-23.328125c-2.777344 0-5.03125-2.25-5.03125-5.03125 0-2.777343 2.253906-5.03125 5.03125-5.03125h23.328125c2.78125 0 5.03125 2.253907 5.03125 5.03125 0 2.78125-2.25 5.03125-5.03125 5.03125zm0 0" fill="#eab599"/><path d="m254.238281 340.125c-8.609375 0-17.21875-2.160156-25.066406-6.472656-2.214844-1.21875-3.023437-3.996094-1.804687-6.210938 1.214843-2.214844 3.996093-3.023437 6.210937-1.804687 12.9375 7.113281 28.386719 7.113281 41.324219 0 2.210937-1.21875 4.992187-.410157 6.210937 1.804687s.410157 4.992188-1.804687 6.210938c-7.847656 4.316406-16.457032 6.472656-25.070313 6.472656zm0 0" fill="#eab599"/><path d="m225.386719 276.863281c0 2.761719-2.234375 4.996094-4.996094 4.996094s-4.996094-2.234375-4.996094-4.996094 2.234375-4.996093 4.996094-4.996093 4.996094 2.234374 4.996094 4.996093zm0 0" fill="#fff"/><path d="m302.234375 276.863281c0 2.761719-2.234375 4.996094-4.996094 4.996094s-4.996093-2.234375-4.996093-4.996094 2.234374-4.996093 4.996093-4.996093 4.996094 2.234374 4.996094 4.996093zm0 0" fill="#fff"/><path d="m324.222656 307.332031c0 7.074219-5.734375 12.808594-12.808594 12.808594-7.074218 0-12.808593-5.734375-12.808593-12.808594s5.734375-12.808593 12.808593-12.808593c7.074219 0 12.808594 5.734374 12.808594 12.808593zm0 0" fill="#eab599"/><path d="m209.867188 307.332031c0 7.074219-5.734376 12.808594-12.808594 12.808594-7.074219 0-12.808594-5.734375-12.808594-12.808594s5.734375-12.808593 12.808594-12.808593c7.074218 0 12.808594 5.734374 12.808594 12.808593zm0 0" fill="#eab599"/></svg>